# xmcd
#
# Track frame offsets: 
#        150
#        15535
#        29881
#        48499
#        65627
#        82810
#        97541
#        115654
#        129846
#        145580
#
# Disc length: 2183 seconds
#
# Revision: 0
# Processed by: cddbd v1.5.2PL0 Copyright (c) Steve Scherf et al.
# Submitted via: ExactAudioCopyFreeDBPlugin 1.0
#
DISCID=7408850a
DTITLE=Sugaray Rayford - The World That We Live In
DYEAR=2017
DGENRE=Blues
TTITLE0=Take Me Back
TTITLE1=The World That We Live In
TTITLE2=Don't Regret A Mile
TTITLE3=What Do We Own
TTITLE4=Home Again
TTITLE5=Keep Moving
TTITLE6=Dig A Little Deeper
TTITLE7=Ain't Got No Business To Die
TTITLE8=The Boogey Man
TTITLE9=Troubles
EXTD=
EXTT0=
EXTT1=
EXTT2=
EXTT3=
EXTT4=
EXTT5=
EXTT6=
EXTT7=
EXTT8=
EXTT9=
PLAYORDER=
